{
    "accessors": [
        {
            "bufferView": 1,
            "byteOffset": 0,
            "componentType": 5126,
            "count": 128,
            "max": [
                0.32633018493652344,
                0.9752153754234314,
                0.9432716369628906
            ],
            "min": [
                -0.9998443722724915,
                -0.9721028804779053,
                -0.9376709461212158
            ],
            "name": "accessor_buffer_Cone.001_NORMAL_0",
            "type": "VEC3"
        },
        {
            "bufferView": 2,
            "byteOffset": 0,
            "componentType": 5123,
            "count": 186,
            "max": [
                127
            ],
            "min": [
                0
            ],
            "name": "accessor_buffer_Cone.001_0",
            "type": "SCALAR"
        },
        {
            "bufferView": 0,
            "byteOffset": 0,
            "componentType": 5126,
            "count": 128,
            "max": [
                1.4856435060501099,
                0.663106381893158,
                0.9853581190109253
            ],
            "min": [
                -1.499548077583313,
                -0.6828537583351135,
                -1.0144555568695068
            ],
            "name": "accessor_buffer_Cone.001_POSITION_0",
            "type": "VEC3"
        },
        {
            "bufferView": 5,
            "byteOffset": 0,
            "componentType": 5123,
            "count": 372,
            "max": [
                191
            ],
            "min": [
                0
            ],
            "name": "accessor_buffer_Cylinder.001_0",
            "type": "SCALAR"
        },
        {
            "bufferView": 3,
            "byteOffset": 0,
            "componentType": 5126,
            "count": 192,
            "max": [
                49.7806396484375,
                0.06284032762050629,
                1.4872790575027466
            ],
            "min": [
                2.2933759689331055,
                -0.041173145174980164,
                -0.9773114323616028
            ],
            "name": "accessor_buffer_Cylinder.001_POSITION_0",
            "type": "VEC3"
        },
        {
            "bufferView": 4,
            "byteOffset": 0,
            "componentType": 5126,
            "count": 192,
            "max": [
                0.9735758304595947,
                0.999992847442627,
                0.4286341071128845
            ],
            "min": [
                -0.9735795855522156,
                -0.999992847442627,
                -0.4286293387413025
            ],
            "name": "accessor_buffer_Cylinder.001_NORMAL_0",
            "type": "VEC3"
        }
    ],
    "asset": {
        "copyright": "",
        "generator": "blendergltf v1.2.0",
        "version": "2.0"
    },
    "bufferViews": [
        {
            "buffer": 0,
            "byteLength": 1536,
            "byteOffset": 0,
            "byteStride": 12,
            "name": "bufferView_buffer_Cone.001_POSITION_0",
            "target": 34962
        },
        {
            "buffer": 0,
            "byteLength": 1536,
            "byteOffset": 1536,
            "byteStride": 12,
            "name": "bufferView_buffer_Cone.001_NORMAL_0",
            "target": 34962
        },
        {
            "buffer": 0,
            "byteLength": 376,
            "byteOffset": 3072,
            "name": "bufferView_buffer_Cone.001_0",
            "target": 34963
        },
        {
            "buffer": 0,
            "byteLength": 2304,
            "byteOffset": 3448,
            "byteStride": 12,
            "name": "bufferView_buffer_Cylinder.001_POSITION_0",
            "target": 34962
        },
        {
            "buffer": 0,
            "byteLength": 2304,
            "byteOffset": 5752,
            "byteStride": 12,
            "name": "bufferView_buffer_Cylinder.001_NORMAL_0",
            "target": 34962
        },
        {
            "buffer": 0,
            "byteLength": 748,
            "byteOffset": 8056,
            "name": "bufferView_buffer_Cylinder.001_0",
            "target": 34963
        }
    ],
    "buffers": [
        {
            "byteLength": 8804,
            "name": "buffer_axis_arrow04",
            "uri": "data:application/octet-stream;base64,"
        }
    ],
    "meshes": [
        {
            "name": "Cone.001",
            "primitives": [
                {
                    "attributes": {
                        "NORMAL": 0,
                        "POSITION": 2
                    },
                    "indices": 1,
                    "mode": 4
                }
            ]
        },
        {
            "name": "Cylinder.001",
            "primitives": [
                {
                    "attributes": {
                        "NORMAL": 5,
                        "POSITION": 4
                    },
                    "indices": 3,
                    "mode": 4
                }
            ]
        }
    ],
    "nodes": [
        {
            "mesh": 0,
            "name": "Cone.000",
            "rotation": [
                0.0,
                0.0,
                0.0,
                1.0
            ],
            "scale": [
                3.3264074325561523,
                0.20825594663619995,
                3.3264074325561523
            ],
            "translation": [
                54.63935089111328,
                0.02273457869887352,
                0.5350903868675232
            ]
        },
        {
            "children": [
                0
            ],
            "mesh": 1,
            "name": "Cylinder.000",
            "rotation": [
                0.0,
                0.0,
                0.0,
                1.0
            ],
            "scale": [
                0.14765462279319763,
                3.5041425228118896,
                0.14765462279319763
            ],
            "translation": [
                0.0,
                1.7763568394002505e-15,
                0.0
            ]
        }
    ],
    "scene": 0,
    "scenes": [
        {
            "extras": {
                "background_color": [
                    0.05087608844041824,
                    0.05087608844041824,
                    0.05087608844041824
                ],
                "frames_per_second": 24
            },
            "name": "Scene",
            "nodes": [
                1
            ]
        }
    ]
}
