{
    "accessors": [
        {
            "bufferView": 2,
            "byteOffset": 0,
            "componentType": 5123,
            "count": 186,
            "max": [
                127
            ],
            "min": [
                0
            ],
            "name": "accessor_buffer_Cone.001_0",
            "type": "SCALAR"
        },
        {
            "bufferView": 19,
            "byteOffset": 0,
            "componentType": 5126,
            "count": 1984,
            "max": [
                0.9904382228851318,
                0.9951386451721191,
                0.9904382824897766
            ],
            "min": [
                -0.9904382228851318,
                -0.9951384663581848,
                -0.9904382824897766
            ],
            "name": "accessor_buffer_Sphere_NORMAL_0",
            "type": "VEC3"
        },
        {
            "bufferView": 14,
            "byteOffset": 0,
            "componentType": 5123,
            "count": 372,
            "max": [
                191
            ],
            "min": [
                0
            ],
            "name": "accessor_buffer_Cylinder.003_0",
            "type": "SCALAR"
        },
        {
            "bufferView": 15,
            "byteOffset": 0,
            "componentType": 5126,
            "count": 192,
            "max": [
                1.0,
                2.097231864929199,
                0.9999999403953552
            ],
            "min": [
                -1.0,
                0.0972316637635231,
                -1.0
            ],
            "name": "accessor_buffer_Cylinder.004_POSITION_0",
            "type": "VEC3"
        },
        {
            "bufferView": 5,
            "byteOffset": 0,
            "componentType": 5123,
            "count": 186,
            "max": [
                127
            ],
            "min": [
                0
            ],
            "name": "accessor_buffer_Cone.003_0",
            "type": "SCALAR"
        },
        {
            "bufferView": 18,
            "byteOffset": 0,
            "componentType": 5126,
            "count": 1984,
            "max": [
                0.9999998211860657,
                1.0,
                1.0
            ],
            "min": [
                -1.000000238418579,
                -1.0,
                -1.0000003576278687
            ],
            "name": "accessor_buffer_Sphere_POSITION_0",
            "type": "VEC3"
        },
        {
            "bufferView": 16,
            "byteOffset": 0,
            "componentType": 5126,
            "count": 192,
            "max": [
                0.9951848387718201,
                1.0,
                0.9951848983764648
            ],
            "min": [
                -0.9951847791671753,
                -1.0,
                -0.9951847195625305
            ],
            "name": "accessor_buffer_Cylinder.004_NORMAL_0",
            "type": "VEC3"
        },
        {
            "bufferView": 9,
            "byteOffset": 0,
            "componentType": 5126,
            "count": 192,
            "max": [
                1.0,
                2.097231864929199,
                0.9999999403953552
            ],
            "min": [
                -1.0,
                0.0972316637635231,
                -1.0
            ],
            "name": "accessor_buffer_Cylinder.001_POSITION_0",
            "type": "VEC3"
        },
        {
            "bufferView": 11,
            "byteOffset": 0,
            "componentType": 5123,
            "count": 372,
            "max": [
                191
            ],
            "min": [
                0
            ],
            "name": "accessor_buffer_Cylinder.001_0",
            "type": "SCALAR"
        },
        {
            "bufferView": 0,
            "byteOffset": 0,
            "componentType": 5126,
            "count": 128,
            "max": [
                1.0,
                1.0,
                1.0
            ],
            "min": [
                -1.0,
                -1.0,
                -1.0
            ],
            "name": "accessor_buffer_Cone.001_POSITION_0",
            "type": "VEC3"
        },
        {
            "bufferView": 8,
            "byteOffset": 0,
            "componentType": 5123,
            "count": 186,
            "max": [
                127
            ],
            "min": [
                0
            ],
            "name": "accessor_buffer_Cone.004_0",
            "type": "SCALAR"
        },
        {
            "bufferView": 4,
            "byteOffset": 0,
            "componentType": 5126,
            "count": 128,
            "max": [
                0.8909767866134644,
                0.44548842310905457,
                0.8909766674041748
            ],
            "min": [
                -0.89097660779953,
                -1.0,
                -0.8909766674041748
            ],
            "name": "accessor_buffer_Cone.003_NORMAL_0",
            "type": "VEC3"
        },
        {
            "bufferView": 6,
            "byteOffset": 0,
            "componentType": 5126,
            "count": 128,
            "max": [
                1.0,
                1.0,
                1.0
            ],
            "min": [
                -1.0,
                -1.0,
                -1.0
            ],
            "name": "accessor_buffer_Cone.004_POSITION_0",
            "type": "VEC3"
        },
        {
            "bufferView": 7,
            "byteOffset": 0,
            "componentType": 5126,
            "count": 128,
            "max": [
                0.8909767866134644,
                0.44548842310905457,
                0.8909766674041748
            ],
            "min": [
                -0.89097660779953,
                -1.0,
                -0.8909766674041748
            ],
            "name": "accessor_buffer_Cone.004_NORMAL_0",
            "type": "VEC3"
        },
        {
            "bufferView": 12,
            "byteOffset": 0,
            "componentType": 5126,
            "count": 192,
            "max": [
                1.0,
                2.097231864929199,
                0.9999999403953552
            ],
            "min": [
                -1.0,
                0.0972316637635231,
                -1.0
            ],
            "name": "accessor_buffer_Cylinder.003_POSITION_0",
            "type": "VEC3"
        },
        {
            "bufferView": 1,
            "byteOffset": 0,
            "componentType": 5126,
            "count": 128,
            "max": [
                0.8909767866134644,
                0.44548842310905457,
                0.8909766674041748
            ],
            "min": [
                -0.89097660779953,
                -1.0,
                -0.8909766674041748
            ],
            "name": "accessor_buffer_Cone.001_NORMAL_0",
            "type": "VEC3"
        },
        {
            "bufferView": 17,
            "byteOffset": 0,
            "componentType": 5123,
            "count": 372,
            "max": [
                191
            ],
            "min": [
                0
            ],
            "name": "accessor_buffer_Cylinder.004_0",
            "type": "SCALAR"
        },
        {
            "bufferView": 20,
            "byteOffset": 0,
            "componentType": 5123,
            "count": 2880,
            "max": [
                1983
            ],
            "min": [
                0
            ],
            "name": "accessor_buffer_Sphere_0",
            "type": "SCALAR"
        },
        {
            "bufferView": 10,
            "byteOffset": 0,
            "componentType": 5126,
            "count": 192,
            "max": [
                0.9951848387718201,
                1.0,
                0.9951848983764648
            ],
            "min": [
                -0.9951847791671753,
                -1.0,
                -0.9951847195625305
            ],
            "name": "accessor_buffer_Cylinder.001_NORMAL_0",
            "type": "VEC3"
        },
        {
            "bufferView": 13,
            "byteOffset": 0,
            "componentType": 5126,
            "count": 192,
            "max": [
                0.9951848387718201,
                1.0,
                0.9951848983764648
            ],
            "min": [
                -0.9951847791671753,
                -1.0,
                -0.9951847195625305
            ],
            "name": "accessor_buffer_Cylinder.003_NORMAL_0",
            "type": "VEC3"
        },
        {
            "bufferView": 3,
            "byteOffset": 0,
            "componentType": 5126,
            "count": 128,
            "max": [
                1.0,
                1.0,
                1.0
            ],
            "min": [
                -1.0,
                -1.0,
                -1.0
            ],
            "name": "accessor_buffer_Cone.003_POSITION_0",
            "type": "VEC3"
        }
    ],
    "asset": {
        "copyright": "",
        "generator": "blendergltf v1.2.0",
        "version": "2.0"
    },
    "bufferViews": [
        {
            "buffer": 0,
            "byteLength": 1536,
            "byteOffset": 0,
            "byteStride": 12,
            "name": "bufferView_buffer_Cone.001_POSITION_0",
            "target": 34962
        },
        {
            "buffer": 0,
            "byteLength": 1536,
            "byteOffset": 1536,
            "byteStride": 12,
            "name": "bufferView_buffer_Cone.001_NORMAL_0",
            "target": 34962
        },
        {
            "buffer": 0,
            "byteLength": 376,
            "byteOffset": 3072,
            "name": "bufferView_buffer_Cone.001_0",
            "target": 34963
        },
        {
            "buffer": 0,
            "byteLength": 1536,
            "byteOffset": 3448,
            "byteStride": 12,
            "name": "bufferView_buffer_Cone.003_POSITION_0",
            "target": 34962
        },
        {
            "buffer": 0,
            "byteLength": 1536,
            "byteOffset": 4984,
            "byteStride": 12,
            "name": "bufferView_buffer_Cone.003_NORMAL_0",
            "target": 34962
        },
        {
            "buffer": 0,
            "byteLength": 376,
            "byteOffset": 6520,
            "name": "bufferView_buffer_Cone.003_0",
            "target": 34963
        },
        {
            "buffer": 0,
            "byteLength": 1536,
            "byteOffset": 6896,
            "byteStride": 12,
            "name": "bufferView_buffer_Cone.004_POSITION_0",
            "target": 34962
        },
        {
            "buffer": 0,
            "byteLength": 1536,
            "byteOffset": 8432,
            "byteStride": 12,
            "name": "bufferView_buffer_Cone.004_NORMAL_0",
            "target": 34962
        },
        {
            "buffer": 0,
            "byteLength": 376,
            "byteOffset": 9968,
            "name": "bufferView_buffer_Cone.004_0",
            "target": 34963
        },
        {
            "buffer": 0,
            "byteLength": 2304,
            "byteOffset": 10344,
            "byteStride": 12,
            "name": "bufferView_buffer_Cylinder.001_POSITION_0",
            "target": 34962
        },
        {
            "buffer": 0,
            "byteLength": 2304,
            "byteOffset": 12648,
            "byteStride": 12,
            "name": "bufferView_buffer_Cylinder.001_NORMAL_0",
            "target": 34962
        },
        {
            "buffer": 0,
            "byteLength": 748,
            "byteOffset": 14952,
            "name": "bufferView_buffer_Cylinder.001_0",
            "target": 34963
        },
        {
            "buffer": 0,
            "byteLength": 2304,
            "byteOffset": 15700,
            "byteStride": 12,
            "name": "bufferView_buffer_Cylinder.003_POSITION_0",
            "target": 34962
        },
        {
            "buffer": 0,
            "byteLength": 2304,
            "byteOffset": 18004,
            "byteStride": 12,
            "name": "bufferView_buffer_Cylinder.003_NORMAL_0",
            "target": 34962
        },
        {
            "buffer": 0,
            "byteLength": 748,
            "byteOffset": 20308,
            "name": "bufferView_buffer_Cylinder.003_0",
            "target": 34963
        },
        {
            "buffer": 0,
            "byteLength": 2304,
            "byteOffset": 21056,
            "byteStride": 12,
            "name": "bufferView_buffer_Cylinder.004_POSITION_0",
            "target": 34962
        },
        {
            "buffer": 0,
            "byteLength": 2304,
            "byteOffset": 23360,
            "byteStride": 12,
            "name": "bufferView_buffer_Cylinder.004_NORMAL_0",
            "target": 34962
        },
        {
            "buffer": 0,
            "byteLength": 748,
            "byteOffset": 25664,
            "name": "bufferView_buffer_Cylinder.004_0",
            "target": 34963
        },
        {
            "buffer": 0,
            "byteLength": 23808,
            "byteOffset": 26412,
            "byteStride": 12,
            "name": "bufferView_buffer_Sphere_POSITION_0",
            "target": 34962
        },
        {
            "buffer": 0,
            "byteLength": 23808,
            "byteOffset": 50220,
            "byteStride": 12,
            "name": "bufferView_buffer_Sphere_NORMAL_0",
            "target": 34962
        },
        {
            "buffer": 0,
            "byteLength": 5764,
            "byteOffset": 74028,
            "name": "bufferView_buffer_Sphere_0",
            "target": 34963
        }
    ],
    "buffers": [
        {
            "byteLength": 79792,
            "name": "buffer_axis03",
            "uri": "data:application/octet-stream;base64,"
        }
    ],
    "meshes": [
        {
            "name": "Cone.001",
            "primitives": [
                {
                    "attributes": {
                        "NORMAL": 15,
                        "POSITION": 9
                    },
                    "indices": 0,
                    "mode": 4
                }
            ]
        },
        {
            "name": "Cone.003",
            "primitives": [
                {
                    "attributes": {
                        "NORMAL": 11,
                        "POSITION": 20
                    },
                    "indices": 4,
                    "mode": 4
                }
            ]
        },
        {
            "name": "Cone.004",
            "primitives": [
                {
                    "attributes": {
                        "NORMAL": 13,
                        "POSITION": 12
                    },
                    "indices": 10,
                    "mode": 4
                }
            ]
        },
        {
            "name": "Cylinder.001",
            "primitives": [
                {
                    "attributes": {
                        "NORMAL": 18,
                        "POSITION": 7
                    },
                    "indices": 8,
                    "mode": 4
                }
            ]
        },
        {
            "name": "Cylinder.003",
            "primitives": [
                {
                    "attributes": {
                        "NORMAL": 19,
                        "POSITION": 14
                    },
                    "indices": 2,
                    "mode": 4
                }
            ]
        },
        {
            "name": "Cylinder.004",
            "primitives": [
                {
                    "attributes": {
                        "NORMAL": 6,
                        "POSITION": 3
                    },
                    "indices": 16,
                    "mode": 4
                }
            ]
        },
        {
            "name": "Sphere",
            "primitives": [
                {
                    "attributes": {
                        "NORMAL": 1,
                        "POSITION": 5
                    },
                    "indices": 17,
                    "mode": 4
                }
            ]
        }
    ],
    "nodes": [
        {
            "mesh": 0,
            "name": "Cone.000",
            "rotation": [
                -3.6028933436682564e-07,
                1.679870909043757e-09,
                2.0774971076775728e-08,
                1.0
            ],
            "scale": [
                3.3264074325561523,
                0.20825594663619995,
                3.3264076709747314
            ],
            "translation": [
                -1.3690441846847534e-07,
                2.30256986618042,
                -5.960465898624534e-08
            ]
        },
        {
            "mesh": 2,
            "name": "Cone.001",
            "rotation": [
                -3.561462449397368e-07,
                1.650169334510565e-09,
                1.6433329363962912e-08,
                1.0
            ],
            "scale": [
                3.3264074325561523,
                0.20825594663619995,
                3.3264074325561523
            ],
            "translation": [
                -1.2619096878552227e-07,
                2.30256986618042,
                -5.920741585896394e-08
            ]
        },
        {
            "mesh": 1,
            "name": "Cone.002",
            "rotation": [
                -3.5614621651802736e-07,
                1.650169334510565e-09,
                1.6433329363962912e-08,
                1.0
            ],
            "scale": [
                3.3264074325561523,
                0.20825594663619995,
                3.3264074325561523
            ],
            "translation": [
                -1.2619096878552227e-07,
                2.30256986618042,
                -5.9207433622532335e-08
            ]
        },
        {
            "children": [
                0
            ],
            "mesh": 3,
            "name": "Cylinder.000",
            "rotation": [
                -0.49761685729026794,
                0.5023242235183716,
                0.5025128722190857,
                0.4975225329399109
            ],
            "scale": [
                0.31380850076675415,
                7.447309494018555,
                0.31380847096443176
            ],
            "translation": [
                0.0,
                3.775268621076253e-15,
                0.0
            ]
        },
        {
            "children": [
                1
            ],
            "mesh": 5,
            "name": "Cylinder.001",
            "rotation": [
                -1.7763568394002505e-15,
                0.0,
                0.0,
                1.0
            ],
            "scale": [
                0.31380850076675415,
                7.447309494018555,
                0.31380850076675415
            ],
            "translation": [
                0.0,
                3.775268621076253e-15,
                0.0
            ]
        },
        {
            "children": [
                2
            ],
            "mesh": 4,
            "name": "Cylinder.002",
            "rotation": [
                -0.7071068286895752,
                0.0,
                0.0,
                0.7071067094802856
            ],
            "scale": [
                0.31380850076675415,
                7.447309494018555,
                0.31380850076675415
            ],
            "translation": [
                0.0,
                3.775268621076253e-15,
                0.0
            ]
        },
        {
            "children": [
                3,
                4,
                5
            ],
            "mesh": 6,
            "name": "Sphere",
            "rotation": [
                0.0,
                0.0,
                0.0,
                1.0
            ],
            "scale": [
                0.4705246090888977,
                0.4705246090888977,
                0.4705246090888977
            ],
            "translation": [
                0.0,
                0.0,
                0.0
            ]
        }
    ],
    "scene": 0,
    "scenes": [
        {
            "extras": {
                "background_color": [
                    0.05087608844041824,
                    0.05087608844041824,
                    0.05087608844041824
                ],
                "frames_per_second": 24
            },
            "name": "Scene",
            "nodes": [
                6
            ]
        }
    ]
}
