{
    "asset" : {
        "generator" : "Khronos glTF Blender I/O v1.0.5",
        "version" : "2.0"
    },
    "scene" : 0,
    "scenes" : [
        {
            "name" : "Scene",
            "nodes" : [
                0,
                1,
                2
            ]
        }
    ],
    "nodes" : [
        {
            "mesh" : 0,
            "name" : "Curve",
            "rotation" : [
                0.7071068286895752,
                0,
                0,
                0.7071067094802856
            ],
            "scale" : [
                272.72552490234375,
                272.7255554199219,
                272.7255554199219
            ],
            "translation" : [
                0.004895031452178955,
                0,
                -0.002525452757254243
            ]
        },
        {
            "mesh" : 1,
            "name" : "Cube",
            "scale" : [
                0.0555231086909771,
                0.06756793707609177,
                0.15900571644306183
            ],
            "translation" : [
                3.3651790618896484,
                -0.07875578850507736,
                2.3017423152923584
            ]
        },
        {
            "mesh" : 2,
            "name" : "Cube.001",
            "scale" : [
                0.0555231086909771,
                0.06756793707609177,
                0.15900571644306183
            ],
            "translation" : [
                2.7332468032836914,
                -0.07577158510684967,
                2.595553159713745
            ]
        }
    ],
    "materials" : [
        {
            "emissiveFactor" : [
                0,
                0,
                0
            ],
            "name" : "SVGMat.001",
            "pbrMetallicRoughness" : {
                "baseColorFactor" : [
                    0,
                    0,
                    0,
                    1
                ],
                "metallicFactor" : 0,
                "roughnessFactor" : 1
            }
        }
    ],
    "meshes" : [
        {
            "name" : "CUpath3715",
            "primitives" : [
                {
                    "attributes" : {
                        "POSITION" : 0,
                        "NORMAL" : 1
                    },
                    "indices" : 2,
                    "material" : 0
                }
            ]
        },
        {
            "name" : "Cube.001",
            "primitives" : [
                {
                    "attributes" : {
                        "POSITION" : 3,
                        "NORMAL" : 4,
                        "TEXCOORD_0" : 5
                    },
                    "indices" : 6,
                    "material" : 0
                }
            ]
        },
        {
            "name" : "Cube.002",
            "primitives" : [
                {
                    "attributes" : {
                        "POSITION" : 7,
                        "NORMAL" : 8,
                        "TEXCOORD_0" : 9
                    },
                    "indices" : 6,
                    "material" : 0
                }
            ]
        }
    ],
    "accessors" : [
        {
            "bufferView" : 0,
            "componentType" : 5126,
            "count" : 11382,
            "max" : [
                0.017111236229538918,
                0.01648302562534809,
                0.0005626261699944735
            ],
            "min" : [
                -0.016281532123684883,
                -0.016991594806313515,
                0
            ],
            "type" : "VEC3"
        },
        {
            "bufferView" : 1,
            "componentType" : 5126,
            "count" : 11382,
            "type" : "VEC3"
        },
        {
            "bufferView" : 2,
            "componentType" : 5123,
            "count" : 13890,
            "type" : "SCALAR"
        },
        {
            "bufferView" : 3,
            "componentType" : 5126,
            "count" : 24,
            "max" : [
                1,
                1,
                1
            ],
            "min" : [
                -1,
                -1,
                -2.170870542526245
            ],
            "type" : "VEC3"
        },
        {
            "bufferView" : 4,
            "componentType" : 5126,
            "count" : 24,
            "type" : "VEC3"
        },
        {
            "bufferView" : 5,
            "componentType" : 5126,
            "count" : 24,
            "type" : "VEC2"
        },
        {
            "bufferView" : 6,
            "componentType" : 5123,
            "count" : 36,
            "type" : "SCALAR"
        },
        {
            "bufferView" : 7,
            "componentType" : 5126,
            "count" : 24,
            "max" : [
                1,
                1,
                1
            ],
            "min" : [
                -1,
                -1,
                -2.170870542526245
            ],
            "type" : "VEC3"
        },
        {
            "bufferView" : 8,
            "componentType" : 5126,
            "count" : 24,
            "type" : "VEC3"
        },
        {
            "bufferView" : 9,
            "componentType" : 5126,
            "count" : 24,
            "type" : "VEC2"
        }
    ],
    "bufferViews" : [
        {
            "buffer" : 0,
            "byteLength" : 136584,
            "byteOffset" : 0
        },
        {
            "buffer" : 0,
            "byteLength" : 136584,
            "byteOffset" : 136584
        },
        {
            "buffer" : 0,
            "byteLength" : 27780,
            "byteOffset" : 273168
        },
        {
            "buffer" : 0,
            "byteLength" : 288,
            "byteOffset" : 300948
        },
        {
            "buffer" : 0,
            "byteLength" : 288,
            "byteOffset" : 301236
        },
        {
            "buffer" : 0,
            "byteLength" : 192,
            "byteOffset" : 301524
        },
        {
            "buffer" : 0,
            "byteLength" : 72,
            "byteOffset" : 301716
        },
        {
            "buffer" : 0,
            "byteLength" : 288,
            "byteOffset" : 301788
        },
        {
            "buffer" : 0,
            "byteLength" : 288,
            "byteOffset" : 302076
        },
        {
            "buffer" : 0,
            "byteLength" : 192,
            "byteOffset" : 302364
        }
    ],
    "buffers" : [
        {
            "byteLength" : 302556,
            "uri" : "data:application/octet-stream;base64,"
        }
    ]
}
