{
    "accessors": [
        {
            "bufferView": 1,
            "byteOffset": 0,
            "componentType": 5126,
            "count": 910,
            "max": [
                0.9931638240814209,
                0.999420166015625,
                0.9951781034469604
            ],
            "min": [
                -0.999603271484375,
                -1.0,
                -1.0
            ],
            "name": "accessor_buffer_Cube_NORMAL_0",
            "type": "VEC3"
        },
        {
            "bufferView": 3,
            "byteOffset": 0,
            "componentType": 5121,
            "count": 910,
            "max": [
                15,
                15,
                15,
                15
            ],
            "min": [
                0,
                0,
                0,
                0
            ],
            "name": "accessor_buffer_Cube_skin_0",
            "type": "VEC4"
        },
        {
            "bufferView": 0,
            "byteOffset": 0,
            "componentType": 5126,
            "count": 910,
            "max": [
                2.0049633979797363,
                2.1435630321502686,
                2.161397933959961
            ],
            "min": [
                -3.692927360534668,
                -0.728367269039154,
                -1.3820991516113281
            ],
            "name": "accessor_buffer_Cube_POSITION_0",
            "type": "VEC3"
        },
        {
            "bufferView": 3,
            "byteOffset": 16,
            "componentType": 5126,
            "count": 910,
            "max": [
                1.000045657157898,
                0.4851979613304138,
                0.26856330037117004,
                0.20364046096801758
            ],
            "min": [
                0.252622127532959,
                0.0,
                0.0,
                0.0
            ],
            "name": "accessor_buffer_Cube_skin_1",
            "type": "VEC4"
        },
        {
            "bufferView": 4,
            "byteOffset": 0,
            "componentType": 5126,
            "count": 16,
            "max": [
                0.19678807258605957,
                0.4372759759426117,
                1.7741841077804565,
                0.0,
                0.25960373878479004,
                2.885990619659424,
                2.999955415725708,
                0.0,
                0.6851255893707275,
                0.13298925757408142,
                0.09526830911636353,
                0.0,
                0.8158956170082092,
                3.7761454582214355,
                1.7807164192199707,
                1.0
            ],
            "min": [
                -0.689629316329956,
                -1.9998201131820679,
                -1.9416654109954834,
                0.0,
                -2.962766408920288,
                -1.1824982166290283,
                -0.4660302400588989,
                0.0,
                -0.7011046409606934,
                -0.19328173995018005,
                -0.6664914488792419,
                0.0,
                -0.47659075260162354,
                -4.244737148284912,
                -2.6049880981445312,
                1.0
            ],
            "name": "accessor_buffer_IBM_Cube_skin_0",
            "type": "MAT4"
        },
        {
            "bufferView": 2,
            "byteOffset": 0,
            "componentType": 5123,
            "count": 5448,
            "max": [
                909
            ],
            "min": [
                0
            ],
            "name": "accessor_buffer_Cube_0",
            "type": "SCALAR"
        }
    ],
    "asset": {
        "copyright": "",
        "generator": "blendergltf v1.2.0",
        "version": "2.0"
    },
    "bufferViews": [
        {
            "buffer": 0,
            "byteLength": 10920,
            "byteOffset": 0,
            "byteStride": 12,
            "name": "bufferView_buffer_Cube_POSITION_0",
            "target": 34962
        },
        {
            "buffer": 0,
            "byteLength": 10920,
            "byteOffset": 10920,
            "byteStride": 12,
            "name": "bufferView_buffer_Cube_NORMAL_0",
            "target": 34962
        },
        {
            "buffer": 0,
            "byteLength": 10900,
            "byteOffset": 21840,
            "name": "bufferView_buffer_Cube_0",
            "target": 34963
        },
        {
            "buffer": 0,
            "byteLength": 29120,
            "byteOffset": 32740,
            "byteStride": 32,
            "name": "bufferView_buffer_Cube_skin_0",
            "target": 34962
        },
        {
            "buffer": 0,
            "byteLength": 1024,
            "byteOffset": 61860,
            "byteStride": 64,
            "name": "bufferView_buffer_IBM_Cube_skin_0"
        }
    ],
    "buffers": [
        {
            "byteLength": 62884,
            "name": "buffer_hand04",
            "uri": "data:application/octet-stream;base64,"
        }
    ],
    "materials": [
        {
            "alphaMode": "OPAQUE",
            "doubleSided": false,
            "emissiveFactor": [
                0.0,
                0.0,
                0.0
            ],
            "name": "Material",
            "pbrMetallicRoughness": {
                "baseColorFactor": [
                    0.64000004529953,
                    0.64000004529953,
                    0.64000004529953,
                    1.0
                ],
                "metallicFactor": 0.0,
                "roughnessFactor": 1.0
            }
        }
    ],
    "meshes": [
        {
            "name": "Cube",
            "primitives": [
                {
                    "attributes": {
                        "JOINTS_0": 1,
                        "NORMAL": 0,
                        "POSITION": 2,
                        "WEIGHTS_0": 3
                    },
                    "indices": 5,
                    "material": 0,
                    "mode": 4
                }
            ]
        }
    ],
    "nodes": [
        {
            "children": [
                1,
                2
            ],
            "name": "Armature",
            "rotation": [
                0.0,
                0.0,
                0.0,
                1.0
            ],
            "scale": [
                1.0,
                1.0,
                1.0
            ],
            "translation": [
                0.0,
                0.0,
                0.0
            ]
        },
        {
            "mesh": 0,
            "name": "Cube",
            "rotation": [
                0.0,
                0.0,
                0.0,
                1.0
            ],
            "scale": [
                2.0,
                3.0,
                0.7011624574661255
            ],
            "skin": 0,
            "translation": [
                0.0,
                0.0,
                0.0
            ]
        },
        {
            "children": [
                3,
                6,
                9,
                12,
                15
            ],
            "name": "Bone.wrist",
            "rotation": [
                -0.682371973991394,
                0.7138940095901489,
                -0.15093348920345306,
                0.04407821595668793
            ],
            "scale": [
                0.9999997615814209,
                0.9999997019767761,
                0.9999999403953552
            ],
            "translation": [
                3.8095576763153076,
                -0.04768723249435425,
                0.4140823483467102
            ]
        },
        {
            "children": [
                4
            ],
            "name": "Bone.m_palm",
            "rotation": [
                -0.05484943464398384,
                -0.746039867401123,
                0.12611903250217438,
                0.6515443921089172
            ],
            "scale": [
                0.9999998807907104,
                0.9999999403953552,
                0.9999999403953552
            ],
            "translation": [
                -1.1962706381041244e-08,
                1.5021547079086304,
                1.6917162781737716e-08
            ]
        },
        {
            "children": [
                5
            ],
            "name": "Bone.m_base",
            "rotation": [
                -0.06473208218812943,
                -0.0009523677290417254,
                -0.02577611617743969,
                0.9975692629814148
            ],
            "scale": [
                0.9999998211860657,
                1.0,
                0.9999999403953552
            ],
            "translation": [
                -1.8228092812933028e-08,
                4.384852886199951,
                -3.591412678360939e-08
            ]
        },
        {
            "name": "Bone.m_tip",
            "rotation": [
                -0.004923629108816385,
                0.0001426340313628316,
                0.05167433246970177,
                0.9986518621444702
            ],
            "scale": [
                1.0,
                0.9999998211860657,
                0.9999999403953552
            ],
            "translation": [
                -1.3387762010097504e-08,
                2.221362829208374,
                -4.3655745685100555e-10
            ]
        },
        {
            "children": [
                7
            ],
            "name": "Bone.i_palm",
            "rotation": [
                0.03652289882302284,
                -0.6651389598846436,
                0.2538718283176422,
                0.7012883424758911
            ],
            "scale": [
                1.0,
                1.0,
                1.0
            ],
            "translation": [
                -1.1962706381041244e-08,
                1.5021547079086304,
                1.6917162781737716e-08
            ]
        },
        {
            "children": [
                8
            ],
            "name": "Bone.i_base",
            "rotation": [
                -0.2532099485397339,
                -0.07819006592035294,
                -0.009141717106103897,
                0.9642030596733093
            ],
            "scale": [
                0.9999998807907104,
                1.0,
                0.9999998807907104
            ],
            "translation": [
                1.1175870895385742e-08,
                4.427595615386963,
                3.91155481338501e-08
            ]
        },
        {
            "name": "Bone.i_tip",
            "rotation": [
                0.0004055741592310369,
                0.005757280625402927,
                0.04944271594285965,
                0.9987602829933167
            ],
            "scale": [
                0.9999998807907104,
                0.9999999403953552,
                0.9999999403953552
            ],
            "translation": [
                -7.450580596923828e-09,
                2.254434108734131,
                2.838205546140671e-07
            ]
        },
        {
            "children": [
                10
            ],
            "name": "Bone.r_palm",
            "rotation": [
                -0.1329364776611328,
                -0.774955689907074,
                0.011020171456038952,
                0.6177784204483032
            ],
            "scale": [
                0.9999998807907104,
                0.9999998211860657,
                0.9999998807907104
            ],
            "translation": [
                -1.1962706381041244e-08,
                1.5021547079086304,
                1.6917162781737716e-08
            ]
        },
        {
            "children": [
                11
            ],
            "name": "Bone.r_base",
            "rotation": [
                0.06023562327027321,
                0.02449996955692768,
                0.04304346442222595,
                0.9969547986984253
            ],
            "scale": [
                1.0000001192092896,
                1.0,
                1.0
            ],
            "translation": [
                0.0,
                4.370697975158691,
                -3.3527612686157227e-08
            ]
        },
        {
            "name": "Bone.r_tip",
            "rotation": [
                -0.004763380624353886,
                -0.004052401054650545,
                -0.006739205680787563,
                0.9999577403068542
            ],
            "scale": [
                0.9999998807907104,
                1.0,
                0.9999999403953552
            ],
            "translation": [
                -1.1372321750968695e-08,
                2.2770800590515137,
                -4.918547347187996e-09
            ]
        },
        {
            "children": [
                13
            ],
            "name": "Bone.p_palm",
            "rotation": [
                -0.25277021527290344,
                -0.7805275917053223,
                -0.05067720264196396,
                0.5694873332977295
            ],
            "scale": [
                1.0,
                0.9999998211860657,
                0.9999999403953552
            ],
            "translation": [
                -1.1962706381041244e-08,
                1.5021547079086304,
                1.6917162781737716e-08
            ]
        },
        {
            "children": [
                14
            ],
            "name": "Bone.p_base",
            "rotation": [
                0.19560903310775757,
                0.04365912824869156,
                -0.0319683738052845,
                0.9791879653930664
            ],
            "scale": [
                1.0,
                1.0000001192092896,
                1.0000001192092896
            ],
            "translation": [
                0.0,
                4.445167541503906,
                -9.96515154838562e-08
            ]
        },
        {
            "name": "Bone.p_tip",
            "rotation": [
                0.004203771706670523,
                0.0037910963874310255,
                0.00186454551294446,
                0.9999823570251465
            ],
            "scale": [
                0.9999999403953552,
                1.0,
                1.0
            ],
            "translation": [
                3.725290298461914e-09,
                1.9781203269958496,
                -1.0943040251731873e-07
            ]
        },
        {
            "children": [
                16
            ],
            "name": "Bone.t_palm",
            "rotation": [
                0.1608056277036667,
                -0.4756235182285309,
                0.5760989785194397,
                0.6450068950653076
            ],
            "scale": [
                1.0,
                1.0000001192092896,
                1.0000001192092896
            ],
            "translation": [
                -1.1962706381041244e-08,
                1.5021547079086304,
                1.6917162781737716e-08
            ]
        },
        {
            "children": [
                17
            ],
            "name": "Bone.t_base",
            "rotation": [
                -0.1125524565577507,
                -0.005387293640524149,
                0.002203023061156273,
                0.993628740310669
            ],
            "scale": [
                1.0,
                0.9999999403953552,
                1.0
            ],
            "translation": [
                2.2351741790771484e-08,
                3.217085599899292,
                -1.4901161193847656e-08
            ]
        },
        {
            "name": "Bone.t_tip",
            "rotation": [
                -0.06464114785194397,
                0.9222593307495117,
                0.3565481901168823,
                0.13465747237205505
            ],
            "scale": [
                1.0,
                0.9999999403953552,
                0.9999999403953552
            ],
            "translation": [
                8.568167686462402e-08,
                1.30034339427948,
                -7.450580596923828e-08
            ]
        }
    ],
    "scene": 0,
    "scenes": [
        {
            "extras": {
                "background_color": [
                    0.05087608844041824,
                    0.05087608844041824,
                    0.05087608844041824
                ],
                "frames_per_second": 24
            },
            "name": "Scene",
            "nodes": [
                0
            ]
        }
    ],
    "skins": [
        {
            "inverseBindMatrices": 4,
            "joints": [
                2,
                3,
                4,
                5,
                6,
                7,
                8,
                9,
                10,
                11,
                12,
                13,
                14,
                15,
                16,
                17
            ],
            "name": "Cube",
            "skeleton": 2
        }
    ]
}
